<svg xmlns="http://www.w3.org/2000/svg" xmlns:xlink="http://www.w3.org/1999/xlink" version="1.1" x="0px" y="0px" viewBox="0 0 69 86.25" style="enable-background:new 0 0 69 69;" xml:space="preserve"><g><path d="M4.49951,61.95247h3.21997c-0.05005-0.32001-0.08008-0.66003-0.08008-1c0-3.54004,2.89014-6.42999,6.44006-6.42999   c3.55994,0,6.45007,2.88995,6.45007,6.42999c0,0.33997-0.03003,0.67999-0.08008,1h28.10999   c-0.04993-0.32001-0.07996-0.66003-0.07996-1c0-3.54004,2.88989-6.42999,6.44995-6.42999   c3.55005,0,6.44995,2.88995,6.44995,6.42999c0,0.33997-0.03003,0.67999-0.07996,1h3.20007c0.54993,0,1-0.44,1-1v-7.22003   c0-1.22998-0.88013-2.28998-2.08008-2.5l-12.94995-2.58997l-5.61011-8.75c-1.02991-1.61005-2.78992-2.57001-4.69995-2.57001   H22.17944c-1.91992,0-3.66992,0.95996-4.69995,2.57001l-5.55005,8.64996H9.08948c-3.07996,0-5.58997,2.5-5.58997,5.58002v6.83002   C3.49951,61.51247,3.94946,61.95247,4.49951,61.95247z M31.58948,55.89247h-3.35999c-0.55005,0-1-0.45001-1-1c0-0.56,0.44995-1,1-1   h3.35999c0.54993,0,1,0.44,1,1C32.58948,55.44246,32.1394,55.89247,31.58948,55.89247z M30.74951,39.32246h9.40991   c1.21997,0,2.3501,0.60999,3.02002,1.64996l4.8501,7.57001H30.74951V39.32246z M19.15942,40.97243   c0.66003-1.03998,1.79004-1.64996,3.02002-1.64996h6.57007v9.21997H14.30945L19.15942,40.97243z"/><path d="M65.5,64.40504h-7.79688c1.0116-0.81586,1.67261-2.04974,1.67261-3.448c0-2.453-1.99463-4.43616-4.44751-4.43616   c-2.45313,0-4.44763,1.98315-4.44763,4.43616c0,1.39825,0.66101,2.63214,1.67261,3.448H16.85754   c1.0116-0.81586,1.67261-2.04974,1.67261-3.448c0-2.453-1.99451-4.43616-4.44763-4.43616s-4.44751,1.98315-4.44751,4.43616   c0,1.39825,0.66089,2.63214,1.67261,3.448H3.5c-0.55273,0-1,0.44727-1,1s0.44727,1,1,1h62c0.55273,0,1-0.44727,1-1   S66.05273,64.40504,65.5,64.40504z"/><path d="M34.1394,34.29243c0.12012,0.04004,0.23999,0.06,0.36011,0.06c0.10986,0,0.22998-0.01996,0.32996-0.06   c0.07996-0.01996,0.16003-0.06,0.20007-0.07001c7.67993-3.00995,12.6499-10.27997,12.6499-18.52997V9.39247   c0-0.38-0.21997-0.73999-0.57007-0.90002L34.92944,2.69246c-0.27002-0.13-0.58997-0.13-0.85999,0L21.8894,8.49245   c-0.34998,0.16003-0.56995,0.52002-0.56995,0.90002v6.29999C21.31946,23.89247,26.46948,31.36244,34.1394,34.29243z    M28.18652,17.78395c0.39063-0.39063,1.02344-0.39063,1.41406,0l1.9873,1.9873l7.81055-7.81152   c0.39063-0.39063,1.02344-0.39063,1.41406,0s0.39063,1.02344,0,1.41406l-8.51758,8.51855   c-0.1875,0.1875-0.44141,0.29297-0.70703,0.29297s-0.51953-0.10547-0.70703-0.29297l-2.69434-2.69434   C27.7959,18.80739,27.7959,18.17458,28.18652,17.78395z"/></g><text x="0" y="84" fill="#000000" font-size="5px" font-weight="bold" font-family="'Helvetica Neue', Helvetica, Arial-Unicode, Arial, Sans-serif">Created by Vectors Point</text><text x="0" y="89" fill="#000000" font-size="5px" font-weight="bold" font-family="'Helvetica Neue', Helvetica, Arial-Unicode, Arial, Sans-serif">from the Noun Project</text></svg>