<svg xmlns="http://www.w3.org/2000/svg" xmlns:xlink="http://www.w3.org/1999/xlink" version="1.1" x="0px" y="0px" viewBox="0 0 100 125" style="enable-background:new 0 0 100 100;" xml:space="preserve"><path d="M47.7,43.2c-1.4,0.3-4.3,0-5.9-2.7l-0.2-0.4l0.4-0.3c1-0.8,4.9-3.2,8.3-5c-0.9-0.7-3.5-2.2-5.7-2.4  c-1.7-0.2-3.5,0.8-5.3,1.7c-1.1,0.6-5,2.3-10.8,2.7C27.6,38.6,21,52.9,21,52.9c1.5,0.5,3.9,1.9,6.3,3.5c0.2-0.2,0.5-0.5,0.7-0.7  c1.4-1.2,3.1-2,4.5-2c0.9,0,1.7,0.3,2.3,0.9c0.9,1,0.8,2.7-0.1,4.4c0.4-0.1,0.7-0.1,1-0.1c0.8,0,1.5,0.3,2,0.8  c0.8,0.7,1.1,1.8,0.9,3.1c0,0.1,0,0.2-0.1,0.3c0.6-0.2,1-0.4,1.6-0.4s1.1,0.2,1.6,0.5c1.2,0.8,1.6,2.5,1.1,4.2  c0.5-0.3,1-0.4,1.5-0.4s0.8,0.1,1.3,0.3c0.8,0.5,1.4,1.2,1.5,2.3c0.1,0.6,0,1.2-0.1,1.8c0.7,0.6,1.1,0.9,1.2,1  c0.5,0.4,2.7,1.1,3.9,0.5c1.3-0.8,1.5-1.6,1.6-3.2v-0.8l0.8,0.5c1.3,0.8,2.8,0.6,3.7,0c0.8-0.6,1.2-1.5,1.1-2.9v-0.8L60,66  c1.2,0.6,2.6,0.4,3.6-0.4c0.8-0.8,1-2,0.9-2.9l-0.1-0.6l0.7,0.1c1,0.1,2.5,0.1,3.4-0.7c0.8-0.8,0.7-3.1-0.1-4.5l-13-16.5  C54,41,48.9,42.9,47.7,43.2z"/><path d="M37.1,64c0.1-0.1,0.1-0.3,0.2-0.4c0,0,0,0,0.1,0l0,0c1.8-4.2-2.5-4.6-4.6-2.5c-3.5,3.6-1,8.1,2.8,4.8l0,0  C35.7,65.6,37,64.1,37.1,64z"/><path d="M76.1,34c0,0-3.9,1.9-6.3,1.7c-1.8-0.2-5.4-2.7-5.7-2.8c-1-0.3-5.8-0.3-8.6,0.4c-2.8,0.7-11.3,6-12.7,7c1.3,2,3.6,2.2,4.7,2  c0.9-0.2,5.7-1.9,8.2-2.7l0.1,0.1c5,6,12,14.9,13.1,16.5c0.5,0.2,2.3,0.7,4.7,0.5c2.3-0.2,4.1-1.9,5.2-2.8c0.4-0.3,0.6-0.5,0.8-0.6  c0.4-0.3,3.5-3.2,5.5-5.2L76.1,34z"/><path d="M55.5,40L55.5,40L55.5,40z"/><path d="M55.7,39.4L55.7,39.4L55.7,39.4L55.7,39.4z"/><polygon points="25.2,35.5 17.4,51.6 20.1,52.6 27.5,36.5 "/><path d="M17.4,32.1L8,51l7.1,3.3l9.3-19.2L17.4,32.1z M13.3,51.7c-0.8,0-1.3-0.6-1.3-1.3c0-0.8,0.6-1.3,1.3-1.3  c0.8,0,1.3,0.6,1.3,1.3C14.6,51.1,14.1,51.7,13.3,51.7z"/><polygon points="92.4,43.9 82.9,29.6 77,33.6 85.8,47.5 "/><path d="M34.1,55.3c1.9,2.2-4.6,8.8-7.2,6.4C24.3,59.1,31.6,52.4,34.1,55.3z"/><path d="M41.4,68.1c1-1.9,0.9-4-0.6-4.6c-1.6-0.6-3,0.8-3.6,1.5c-1.6,1.9-1.9,4.7,0,5.5C38.1,70.9,40.2,70.2,41.4,68.1z"/><ellipse transform="matrix(0.4561 -0.8899 0.8899 0.4561 -39.2592 77.402)" cx="43.7" cy="70.8" rx="3.2" ry="2.3"/><text x="0" y="115" fill="#000000" font-size="5px" font-weight="bold" font-family="'Helvetica Neue', Helvetica, Arial-Unicode, Arial, Sans-serif">Created by Marc Torrada</text><text x="0" y="120" fill="#000000" font-size="5px" font-weight="bold" font-family="'Helvetica Neue', Helvetica, Arial-Unicode, Arial, Sans-serif">from the Noun Project</text></svg>