<svg xmlns="http://www.w3.org/2000/svg" viewBox="0 0 64 80" x="0px" y="0px"><title>Pay</title><g data-name="Add File"><path d="M5,31.18H8a2.18,2.18,0,0,1,2,2.32V49.71A2.18,2.18,0,0,1,8,52H5M48.52,19.48A10.52,10.52,0,1,1,38,9,10.52,10.52,0,0,1,48.52,19.48Zm-6.37,2.05a3.06,3.06,0,0,0-3.06-3.05H36.62a1.06,1.06,0,0,1-1-1.06,2.57,2.57,0,0,1,4.06-1.34A1,1,0,0,0,41,14.66a4.3,4.3,0,0,0-2.17-1V12.9a1,1,0,1,0-2,0v.8c-1.8.52-3.29,2.29-3.29,3.72a3.06,3.06,0,0,0,3,3.06h2.47a1.06,1.06,0,0,1,1.06,1.05,2.57,2.57,0,0,1-4,1.35,1,1,0,0,0-1.42,1.42,4.36,4.36,0,0,0,2.18,1v.74a1,1,0,1,0,2,0v-.81C40.65,24.74,42.15,23,42.15,21.53ZM27.09,11a1,1,0,0,0-1-1h-6a1,1,0,0,0,0,2h6A1,1,0,0,0,27.09,11Zm-4,4a1,1,0,0,0-1-1h-3a1,1,0,0,0,0,2h3A1,1,0,0,0,23.09,15ZM10,49m0,0,25.37-5.84a2.11,2.11,0,0,0,.51-2.95c-.8-1.09-2.89-1.69-3.48-1.92-1.2-.46-13.6-1.48-19.38-3.42a.77.77,0,0,0-1,.74V48.3a1.49,1.49,0,0,0,1.11,1.45C19,51.3,29.6,54,33,54c3.89,0,17.36-7.56,25-14.1a2.63,2.63,0,0,0,.7-3.16,2.68,2.68,0,0,0-.76-.89h0c-1.49-1.11-3-1.12-5.06-.14A176.61,176.61,0,0,1,35.75,43a8.63,8.63,0,0,1-3.53.39l-7.39-.74C28.34,43.13,33.1,44,35.37,43.16Z"/></g><text x="0" y="79" fill="#000000" font-size="5px" font-weight="bold" font-family="'Helvetica Neue', Helvetica, Arial-Unicode, Arial, Sans-serif">Created by Aswell Studio</text><text x="0" y="84" fill="#000000" font-size="5px" font-weight="bold" font-family="'Helvetica Neue', Helvetica, Arial-Unicode, Arial, Sans-serif">from the Noun Project</text></svg>