<?xml version="1.0" standalone="no"?>
<!DOCTYPE svg PUBLIC "-//W3C//DTD SVG 20010904//EN"
 "http://www.w3.org/TR/2001/REC-SVG-20010904/DTD/svg10.dtd">
<svg version="1.0" xmlns="http://www.w3.org/2000/svg"
 width="3097.000000pt" height="2394.000000pt" viewBox="0 0 3097.000000 2394.000000"
 preserveAspectRatio="xMidYMid meet">

<g transform="translate(0.000000,2394.000000) scale(0.100000,-0.100000)"
fill="#000000" stroke="none">
<path d="M14345 23129 c-2185 -122 -4190 -949 -5840 -2407 -181 -161 -644
-626 -806 -812 -1019 -1166 -1719 -2502 -2088 -3986 -197 -791 -284 -1507
-284 -2329 0 -475 21 -817 79 -1245 255 -1908 1039 -3623 2322 -5080 183 -208
618 -641 827 -824 1150 -1006 2476 -1704 3940 -2076 2170 -551 4422 -337 6448
615 177 84 210 96 221 84 8 -8 777 -970 1711 -2139 934 -1169 1699 -2126 1700
-2128 3 -3 3029 2411 3063 2442 10 10 -337 449 -1694 2147 -938 1174 -1708
2139 -1711 2146 -2 6 47 76 110 155 1098 1377 1803 3108 1996 4898 41 379 46
494 46 1025 0 531 -5 646 -46 1025 -185 1711 -817 3315 -1853 4695 -456 608
-1055 1229 -1637 1697 -1482 1190 -3264 1906 -5159 2072 -399 35 -974 46
-1345 25z m820 -3129 c1191 -63 2296 -428 3270 -1080 1347 -902 2318 -2320
2670 -3899 111 -502 150 -870 150 -1421 -1 -411 -11 -560 -61 -910 -239 -1681
-1143 -3202 -2504 -4216 -904 -674 -1942 -1089 -3060 -1223 -272 -33 -460 -44
-765 -44 -305 0 -492 11 -765 44 -1886 225 -3551 1255 -4593 2839 -587 893
-925 1870 -1029 2975 -18 188 -18 882 0 1070 29 309 82 643 143 910 495 2156
2064 3897 4164 4621 738 255 1597 375 2380 334z"/>
<path d="M13019 17105 c-24 -6 -52 -16 -63 -22 -10 -5 -555 -509 -1212 -1119
l-1193 -1109 0 -749 -1 -749 38 -34 c200 -179 488 -347 737 -428 191 -63 291
-79 475 -79 187 1 309 23 416 77 280 141 636 384 716 489 l27 35 -914 514
c-503 283 -914 517 -915 521 0 14 1777 1661 1815 1681 56 30 155 29 211 0 27
-14 318 -304 816 -810 811 -826 941 -960 1121 -1160 l111 -123 474 0 474 0
-51 59 c-142 163 -349 380 -912 951 -338 344 -921 936 -1294 1315 -372 380
-692 700 -709 712 -43 31 -112 43 -167 28z"/>
<path d="M14360 12855 l0 -985 2000 0 2000 0 0 610 0 610 -925 0 -925 0 0 375
0 375 -1075 0 -1075 0 0 -985z m1440 55 l0 -680 -610 0 -610 0 0 680 0 680
610 0 610 0 0 -680z"/>
<path d="M14290 11634 c-235 -50 -432 -249 -486 -490 -35 -160 0 -352 90 -486
55 -83 163 -179 248 -221 144 -71 -7 -67 2133 -67 2139 0 1986 -4 2135 67 59
28 94 54 160 122 142 143 196 283 187 481 -5 122 -34 214 -99 317 -83 132
-248 246 -403 278 -102 21 -3865 21 -3965 -1z m343 -212 c108 -50 196 -146
233 -256 l16 -46 124 0 124 0 0 -90 0 -90 -124 0 -124 0 -13 -37 c-36 -112
-121 -211 -227 -264 -65 -33 -71 -34 -187 -34 -116 0 -122 1 -187 34 -125 62
-215 182 -240 321 -32 170 64 365 220 448 81 43 122 52 228 48 77 -3 102 -8
157 -34z m3650 1 c223 -105 318 -359 214 -577 -43 -91 -114 -164 -204 -208
-65 -32 -72 -33 -183 -33 -108 0 -119 2 -181 31 -110 52 -192 140 -229 247
l-18 52 -126 3 -126 3 0 89 0 90 125 0 c111 0 126 2 131 18 42 125 126 227
227 276 80 40 109 45 212 43 77 -2 100 -7 158 -34z"/>
<path d="M14370 11311 c-86 -28 -171 -112 -195 -194 -50 -170 43 -330 218
-373 58 -15 69 -15 126 0 222 57 304 309 155 476 -64 70 -111 93 -204 96 -41
2 -86 0 -100 -5z"/>
<path d="M18003 11303 c-23 -8 -65 -34 -91 -58 -125 -112 -131 -301 -14 -421
175 -180 479 -69 500 182 13 171 -119 315 -287 313 -36 0 -85 -7 -108 -16z"/>
</g>
</svg>
